# xmcd
#
# Track frame offsets:
#	150
#	25677
#	50167
#	66670
#	83445
#	98755
#	115207
#	132377
#	151910
#	169552
#
# Disc length: 2577 seconds
#
# Revision: 1
# Processed by: cddbd v1.5.1PL0 Copyright (c) Steve Scherf et al.
# Submitted via: CDex 1.50Beta5
#
DISCID=7c0a0f0a
DTITLE=チューリップ - LOVE MAP SHOP,THE
DYEAR=1997
DGENRE=
TTITLE0=Love Map Shop,The
TTITLE1=さよなら道化者
TTITLE2=愛は戻れない
TTITLE3=さよならの真ん中で
TTITLE4=おくれる時計
TTITLE5=音楽の舟
TTITLE6=日曜の風景画
TTITLE7=Sweet Memory
TTITLE8=明日、天気になれ
TTITLE9=Shooting Star
EXTD=
EXTT0=
EXTT1=
EXTT2=
EXTT3=
EXTT4=
EXTT5=
EXTT6=
EXTT7=
EXTT8=
EXTT9=
PLAYORDER=
